<?xml version="1.0" standalone="no"?>
<!DOCTYPE svg PUBLIC "-//W3C//DTD SVG 20010904//EN"
 "http://www.w3.org/TR/2001/REC-SVG-20010904/DTD/svg10.dtd">
<svg version="1.0" xmlns="http://www.w3.org/2000/svg"
 width="128.000000pt" height="128.000000pt" viewBox="0 0 128.000000 128.000000"
 preserveAspectRatio="xMidYMid meet">
<metadata>
Created by potrace 1.16, written by Peter Selinger 2001-2019
</metadata>
<g transform="translate(0.000000,128.000000) scale(0.100000,-0.100000)"
fill="#000000" stroke="none">
<path d="M477 1264 c-213 -51 -405 -244 -461 -460 -20 -78 -21 -238 -1 -323
52 -219 247 -414 466 -466 82 -19 236 -19 318 0 219 52 414 247 466 466 19 82
19 236 0 318 -52 218 -248 414 -466 466 -80 18 -244 18 -322 -1z m436 -431
c141 -103 256 -190 256 -193 1 -9 -516 -385 -529 -385 -12 0 -529 376 -529
385 0 11 525 390 535 386 6 -2 127 -89 267 -193z"/>
<path d="M562 849 c-33 -10 -122 -89 -122 -109 0 -6 22 -8 58 -4 103 11 230
-30 321 -104 l44 -36 -5 61 c-8 115 -89 195 -202 200 -33 1 -76 -2 -94 -8z"/>
<path d="M436 643 c-15 -4 -17 -12 -13 -45 7 -52 47 -111 98 -145 82 -54 212
-39 279 32 l24 25 -35 36 c-19 19 -63 50 -99 67 -56 28 -76 32 -150 34 -47 1
-93 -1 -104 -4z"/>
</g>
</svg>
