<?xml version="1.0" encoding="UTF-8"?>
<svg id="OBJECTS" xmlns="http://www.w3.org/2000/svg" viewBox="0 0 1080 1080">
  <defs>
    <style>
      .cls-1 {
        fill: #9b9b9b;
      }
    </style>
  </defs>
  <path class="cls-1" d="m971.06,549.49c-1.37-2.13-3.23-4.05-5.44-5.25h.96L407.41,204.93c-4.71-2.76-10.51-2.76-15.21,0L115.22,352.61c-7.55,3.72-10.62,12.89-6.84,20.41,1.15,2.43,3.06,4.6,5.42,6.05l559.98,347.54c2.38,1.48,5.22,2.3,8.07,2.24,2.65,0,5.14-.66,7.41-1.89l276.35-156.6c7.25-4.3,9.66-13.71,5.44-20.87h0Zm-288.31,146.92L152.86,366.95l246.18-131.65,529.04,321.44-245.33,139.67Zm0,0,288.53-72.78c-4.16-7.33-13.54-9.85-20.85-5.69h.93l-268.5,152.39L130.26,427.19c-7.17-4.54-16.63-2.43-21.15,4.71-4.59,7.14-2.49,16.66,4.68,21.17l559.98,347.57c2.38,1.5,5.22,2.27,8.07,2.24,2.65,0,5.14-.71,7.41-2l276.35-156.38c7.25-4.24,9.93-13.49,5.66-20.88h0Zm0,0-3.2,73.49c-4.05-4.98-10.64-6.98-16.72-4.93l-269.24,152.22L130.26,501.17c-7.17-4.49-16.63-2.41-21.15,4.82-4.59,7.03-2.49,16.61,4.68,21.15l559.98,347.81c2.38,1.45,5.22,2.24,8.07,2.19,2.65,0,5.14-.63,7.41-1.92l276.35-156.69c6.59-5.31,7.74-14.88,2.46-21.42h0Zm0,0-340.43-313.12c-5.25-6.59-14.83-7.61-21.4-2.35-.44.38-.71.77-1.18,1.12l-16.33,15.21c-5.09-4.59-10.83-8.45-16.96-11.27-8.1-3.83-17.13-5.33-26.1-4.29-7.85,1.01-15.21,4.35-21.12,9.68-6.18,5.14-10.29,12.26-11.41,20.27-1.1,8.24-.3,16.69,2.57,24.65,2.24,6.48,4.9,12.89,7.85,19.12l-30.42,27.22c-.38-1.04-.6-2.11-.98-3.23-1.07-7.25-.33-14.8,2.33-21.7,1.29-3.28,1.94-6.7,2.11-10.23-.06-3.31-1.5-6.57-3.94-8.95-2.63-3.42-6.78-5.47-11.05-5.75-4.21-.11-8.32,1.34-11.38,4-5.03,4.9-8.4,11.22-9.52,18.14-1.48,9.17-.6,18.52,2.68,27.14,2.35,6.46,5.47,12.72,9.36,18.3l-17.51,15.18c-6.29,5.58-6.89,15.16-1.37,21.53,2.93,3.34,7.11,5.14,11.55,5.14l-.33.47c3.77,0,7.44-1.31,10.23-3.8l17.23-15.29c5.69,5.42,12.09,9.99,19.04,13.68,17.57,10.09,39.62,7.19,54.25-6.84,5.12-4.43,8.67-10.37,10.15-16.99,1.59-7.41,1.26-15.18-.74-22.6-2.82-10.1-6.76-19.83-11.9-29.03v-.93l25.31-22.68c.63,4.19.63,8.4,0,12.5-.93,4.57-1.34,9.22-1.29,13.98.17,3.72,1.7,7.3,4.21,9.93,2.98,3.69,7.11,6.07,11.82,6.65,4.08.25,8.12-1.2,11.13-3.97,3.26-3.04,5.53-6.98,6.54-11.38,1.18-5.52,1.18-11.27,0-16.88-1.29-7.22-3.72-14.12-7.11-20.52-1.61-3.01-3.36-5.8-5.36-8.56l16.69-15.24c6.57-5.28,7.66-14.83,2.35-21.45h0Zm-93.51,123.88c-3.94,3.04-9.14,3.91-13.84,2.33-3.09-.79-6.02-2.03-8.54-3.8l25.66-22.41c1.15,2.87,1.97,5.74,2.57,8.7.99,5.8-1.29,11.55-5.86,15.18h0Zm15.1-74.55c-.77-2.38-1.2-4.71-1.45-7.17-.68-4.19.85-8.37,3.97-11.16,3.67-2.98,8.54-3.97,12.94-2.24,1.5.55,3.01,1.2,4.46,2l-19.92,18.58Zm0,0"/>
</svg>