<svg width="44" height="44" viewBox="0 0 44 44" fill="none" xmlns="http://www.w3.org/2000/svg">
<g clip-path="url(#clip0_1735_27)">
<path d="M42.1486 0.000499908C41.925 0.0276351 41.7092 0.0995818 41.514 0.212038L0.89862 22.212C0.610698 22.3711 0.37595 22.6113 0.223645 22.9028C0.0713398 23.1944 0.00821471 23.5243 0.0421398 23.8514C0.0760649 24.1786 0.205539 24.4885 0.414421 24.7426C0.623302 24.9967 0.90235 25.1836 1.21677 25.2802L12.0052 28.5057C12.2574 30.501 13.3811 39.1419 13.5909 40.8274C13.8008 42.5062 14.9414 42.7973 16.0769 41.2505C16.8452 40.203 21.3637 33.8466 21.3654 33.8466L30.9912 43.4725C31.1985 43.6804 31.4568 43.8302 31.7402 43.9068C32.0236 43.9834 32.3222 43.9843 32.606 43.9092C32.8898 43.8341 33.1489 43.6858 33.3574 43.4791C33.5658 43.2723 33.7163 43.0145 33.7937 42.7313L43.9475 2.11588C44.0212 1.85185 44.029 1.57376 43.9701 1.30603C43.9113 1.0383 43.7877 0.789087 43.6101 0.580263C43.4325 0.371439 43.2064 0.209379 42.9516 0.108298C42.6968 0.0072163 42.4211 -0.0297985 42.1486 0.000499908ZM39.7185 4.9725L31.2028 39.0302L21.6311 29.4568L35.5385 10.1543L13.9091 25.5967L6.0297 23.2697L39.7151 4.97081L39.7185 4.9725Z" fill="white"/>
</g>
<defs>
<clipPath id="clip0_1735_27">
<rect width="44" height="44" fill="white"/>
</clipPath>
</defs>
</svg>
