<svg width="47" height="47" viewBox="0 0 47 47" fill="none" xmlns="http://www.w3.org/2000/svg">
<g clip-path="url(#clip0_1735_23)">
<path d="M40.8117 0.860352H41.3395C44.0806 0.860352 46.3053 3.08503 46.3053 5.82615V6.35394C46.3029 12.9382 43.6859 19.252 39.0297 23.9073L37.7301 25.2098C36.8391 26.1008 35.9112 26.9577 34.9521 27.775V36.8751C34.9521 38.6004 34.0582 40.2008 32.5883 41.1032L24.7168 45.9469C24.4403 46.1179 24.1283 46.223 23.8047 46.2544C23.4811 46.2858 23.1547 46.2426 22.8505 46.128C22.5462 46.0134 22.2723 45.8306 22.0499 45.5936C21.8274 45.3566 21.6622 45.0717 21.5671 44.7608L18.86 35.9586C18.7138 35.8514 18.5762 35.7328 18.4486 35.6039L11.5561 28.7142C11.4282 28.5865 11.3106 28.4489 11.2042 28.3028L2.40198 25.5957C2.09112 25.5006 1.80622 25.3354 1.5692 25.1129C1.33218 24.8905 1.14936 24.6166 1.03479 24.3123C0.92023 24.0081 0.876979 23.6817 0.90837 23.3581C0.93976 23.0345 1.04495 22.7225 1.21586 22.446L6.06815 14.5745C6.51206 13.8519 7.1338 13.2552 7.87401 12.8414C8.61421 12.4276 9.44815 12.2104 10.2962 12.2107H19.3878C20.2051 11.2516 21.062 10.3237 21.953 9.43273L23.2555 8.13311C25.5609 5.82737 28.2979 3.99834 31.3102 2.75047C34.3225 1.5026 37.5511 0.860335 40.8117 0.860352ZM26.2662 11.141H26.2605L24.9609 12.4406C22.8043 14.5972 20.8833 16.9751 19.2289 19.5346L14.9725 26.1093L21.0535 32.1903L27.6282 27.9339C30.1877 26.2796 32.5656 24.3585 34.7194 22.2019L36.0218 20.9023C37.9321 18.9917 39.4473 16.7235 40.4809 14.2273C41.5146 11.7311 42.0464 9.0557 42.0461 6.35394V5.82615C42.0461 5.638 41.9713 5.45756 41.8383 5.32453C41.7052 5.19149 41.5248 5.11675 41.3367 5.11675H40.8089C35.3543 5.11723 30.1233 7.28415 26.2662 11.141ZM11.0056 42.1758C8.92845 44.2529 4.38262 45.1411 2.47859 45.4333C2.37594 45.4498 2.27085 45.442 2.17179 45.4104C2.07272 45.3789 1.98245 45.3245 1.90823 45.2517C1.83543 45.1775 1.78106 45.0872 1.74952 44.9882C1.71797 44.8891 1.71013 44.784 1.72663 44.6814C2.0189 42.7773 2.90707 38.2315 4.98987 36.1601C5.37498 35.7235 5.84543 35.3705 6.37221 35.1228C6.899 34.875 7.47095 34.7379 8.0528 34.7197C8.63464 34.7015 9.21405 34.8027 9.75528 35.017C10.2965 35.2313 10.7881 35.5543 11.1997 35.9659C11.6114 36.3775 11.9343 36.8691 12.1486 37.4104C12.363 37.9516 12.4642 38.531 12.446 39.1128C12.4278 39.6947 12.2906 40.2666 12.0429 40.7934C11.7951 41.3202 11.4421 41.7907 11.0056 42.1758ZM30.6985 31.0098C30.4488 31.1801 30.1962 31.3447 29.9437 31.5064L23.2753 35.8224L24.8304 40.8818L30.3608 37.4767C30.4641 37.4132 30.5493 37.3243 30.6084 37.2185C30.6675 37.1127 30.6985 36.9935 30.6985 36.8723V31.0098ZM11.3404 23.8903L15.6592 17.2219C15.8238 16.9666 15.9912 16.7168 16.1587 16.4671H10.2933C10.1721 16.4671 10.0529 16.4981 9.94714 16.5572C9.84133 16.6163 9.75244 16.7016 9.68893 16.8048L6.28381 22.3381L11.3404 23.8903ZM34.9549 15.0483C34.9549 15.8009 34.6559 16.5227 34.1238 17.0548C33.5916 17.587 32.8699 17.8859 32.1173 17.8859C31.3647 17.8859 30.643 17.587 30.1108 17.0548C29.5787 16.5227 29.2797 15.8009 29.2797 15.0483C29.2797 14.2958 29.5787 13.574 30.1108 13.0419C30.643 12.5097 31.3647 12.2107 32.1173 12.2107C32.8699 12.2107 33.5916 12.5097 34.1238 13.0419C34.6559 13.574 34.9549 14.2958 34.9549 15.0483Z" fill="white"/>
</g>
<defs>
<clipPath id="clip0_1735_23">
<rect width="45.4016" height="45.4016" fill="white" transform="translate(0.90625 0.860352)"/>
</clipPath>
</defs>
</svg>
