<svg width="49" height="50" viewBox="0 0 49 50" fill="none" xmlns="http://www.w3.org/2000/svg">
<g clip-path="url(#clip0_1735_29)">
<path d="M38.25 46.8877H3.03125V7.82524H24.5453L27.6415 4.78149L27.5619 4.70024H3.03125C1.33998 4.70024 -0.03125 6.09946 -0.03125 7.82524V46.8877C-0.03125 48.6135 1.33998 50.0127 3.03125 50.0127H38.25C39.9413 50.0127 41.3125 48.6135 41.3125 46.8877V24.0042L38.25 26.987V46.8877ZM46.6183 2.02212C45.2363 0.670556 43.7113 -0.0146484 42.0843 -0.0146484C39.5378 -0.0146484 37.6804 1.66348 37.1751 2.17759C36.4585 2.89946 16.1602 23.5815 16.1602 23.5815C16.001 23.7471 15.8846 23.9495 15.8249 24.1745C15.2752 26.2471 12.5197 35.4534 12.4921 35.5448C12.3497 36.0167 12.4768 36.5308 12.8175 36.8737C12.9362 36.9953 13.0772 37.0917 13.2325 37.1574C13.3879 37.2231 13.5544 37.2568 13.7225 37.2565C13.8542 37.2565 13.9867 37.237 14.1168 37.1956C14.2102 37.1636 23.5194 34.0916 25.0514 33.6253C25.2536 33.5644 25.4365 33.4526 25.5881 33.3019C26.5551 32.3284 45.2126 13.5854 46.7225 11.994C48.2836 10.3503 49.0599 8.64165 49.03 6.91118C49.0017 5.20181 48.187 3.55649 46.6183 2.02212ZM44.5228 9.81894C43.6707 10.7158 36.9982 17.4439 24.6908 29.8158L23.7491 30.7635C22.338 31.2088 18.9593 32.3166 16.4051 33.1572C17.2274 30.3861 18.2143 27.0385 18.6545 25.4549C21.2845 22.7752 38.6749 5.05728 39.3356 4.39165C39.4642 4.26035 40.6379 3.10957 42.0841 3.10957C42.9049 3.10957 43.6958 3.4916 44.499 4.27754C45.4591 5.21738 45.9537 6.12051 45.9675 6.96426C45.9828 7.83301 45.4966 8.79316 44.5228 9.81894Z" fill="white"/>
</g>
<defs>
<clipPath id="clip0_1735_29">
<rect width="49" height="50" fill="white"/>
</clipPath>
</defs>
</svg>
