<svg width="45" height="47" viewBox="0 0 45 47" fill="none" xmlns="http://www.w3.org/2000/svg">
<path d="M38.9266 24.5163V9.72139C38.9266 4.35248 30.2294 0.00390625 19.4916 0.00390625C8.75379 0.00390625 0.0566406 4.35248 0.0566406 9.72139V34.0151C0.0566406 39.384 8.77808 43.7326 19.4916 43.7326C20.6091 43.7326 21.678 43.7326 22.7227 43.5868C22.1953 42.0713 21.9243 40.4785 21.921 38.8738V38.7524C21.1436 38.8738 20.3419 38.8738 19.4916 38.8738C10.0899 38.8738 4.91538 35.2298 4.91538 34.0151V28.5976C8.82667 30.4925 13.9526 31.5857 19.4916 31.5857C21.0707 31.5857 22.5769 31.4886 24.0588 31.3185C25.3529 29.177 27.1777 27.4057 29.3567 26.1758C31.5356 24.9458 33.9951 24.2989 36.4972 24.2976C37.3232 24.2976 38.1249 24.3948 38.9266 24.5163ZM34.0678 22.9615C30.9097 25.2694 25.3707 26.727 19.4916 26.727C13.6125 26.727 8.07356 25.2694 4.91538 22.9615V16.1349C8.48656 18.1513 13.6854 19.4389 19.4916 19.4389C25.2978 19.4389 30.4967 18.1513 34.0678 16.1349V22.9615ZM19.4916 14.5801C10.0899 14.5801 4.91538 10.9361 4.91538 9.72139C4.91538 8.5067 10.0899 4.86265 19.4916 4.86265C28.8933 4.86265 34.0678 8.5067 34.0678 9.72139C34.0678 10.9361 28.8933 14.5801 19.4916 14.5801ZM45 34.6224L33.4605 46.1619L26.7797 38.8738L29.5978 36.0558L33.4605 39.9185L42.1819 31.197L45 34.6224Z" fill="white"/>
</svg>
