<svg width="64" height="64" viewBox="0 0 64 64" fill="none" xmlns="http://www.w3.org/2000/svg">
<g clip-path="url(#clip0_1728_138)">
<path d="M56.8891 23.1104H42.6669C41.7239 23.1104 40.8195 23.485 40.1527 24.1518C39.4859 24.8185 39.1113 25.7229 39.1113 26.6659V53.3326C39.1113 54.2756 39.4859 55.1799 40.1527 55.8467C40.8195 56.5135 41.7239 56.8881 42.6669 56.8881H56.8891C57.8321 56.8881 58.7365 56.5135 59.4033 55.8467C60.0701 55.1799 60.4447 54.2756 60.4447 53.3326V26.6659C60.4447 25.7229 60.0701 24.8185 59.4033 24.1518C58.7365 23.485 57.8321 23.1104 56.8891 23.1104ZM56.8891 26.6659V46.2215H42.6669V26.6659H56.8891ZM42.6669 53.3326V49.0659H56.8891V53.3326H42.6669Z" fill="white"/>
<path d="M35.5547 39.1104H7.11024V10.6659H49.7769V19.5548H53.3325V10.6659C53.3325 9.72292 52.9579 8.81855 52.2911 8.15175C51.6243 7.48495 50.7199 7.11035 49.7769 7.11035H7.11024C6.16725 7.11035 5.26288 7.48495 4.59609 8.15175C3.92929 8.81855 3.55469 9.72292 3.55469 10.6659V39.1104C3.55469 40.0533 3.92929 40.9577 4.59609 41.6245C5.26288 42.2913 6.16725 42.6659 7.11024 42.6659H35.5547V39.1104Z" fill="white"/>
<path d="M35.554 46.2227H15.9985C15.527 46.2227 15.0748 46.41 14.7414 46.7434C14.408 47.0768 14.2207 47.5289 14.2207 48.0004C14.2207 48.4719 14.408 48.9241 14.7414 49.2575C15.0748 49.5909 15.527 49.7782 15.9985 49.7782H35.554V46.2227Z" fill="white"/>
</g>
<defs>
<clipPath id="clip0_1728_138">
<rect width="64" height="64" fill="white"/>
</clipPath>
</defs>
</svg>
