<?xml version="1.0" standalone="no"?>
<!DOCTYPE svg PUBLIC "-//W3C//DTD SVG 20010904//EN"
 "http://www.w3.org/TR/2001/REC-SVG-20010904/DTD/svg10.dtd">
<svg version="1.0" xmlns="http://www.w3.org/2000/svg"
 width="128.000000pt" height="128.000000pt" viewBox="0 0 128.000000 128.000000"
 preserveAspectRatio="xMidYMid meet">
<metadata>
Created by potrace 1.16, written by Peter Selinger 2001-2019
</metadata>
<g transform="translate(0.000000,128.000000) scale(0.100000,-0.100000)"
fill="#000000" stroke="none">
<path d="M478 1265 c-123 -30 -260 -118 -339 -217 -39 -50 -99 -157 -99 -178
0 -7 196 -10 600 -10 404 0 600 3 600 10 0 21 -60 128 -99 178 -80 101 -216
187 -344 217 -77 18 -243 18 -319 0z"/>
<path d="M40 410 c0 -21 60 -128 99 -178 80 -101 216 -187 344 -217 80 -19
235 -19 316 0 161 38 328 167 404 311 20 40 37 77 37 83 0 8 -169 11 -600 11
-404 0 -600 -3 -600 -10z"/>
</g>
</svg>
