<?xml version="1.0" encoding="UTF-8"?>
<svg id="OBJECTS" xmlns="http://www.w3.org/2000/svg" viewBox="0 0 1080 1080">
  <defs>
    <style>
      .cls-1 {
        fill: #9b9b9b;
      }
    </style>
  </defs>
  <path class="cls-1" d="m540.06,353.72c-102.28,0-165.69,52.26-165.69,137.04,0,9.68,7.83,17.5,17.4,17.5h296.43c9.57,0,17.44-7.83,17.44-17.5,0-84.57-63.45-137.04-165.59-137.04h0Zm-129.62,119.59c11.48-78.3,100.92-84.69,129.62-84.69s118.01,6.39,129.56,84.69h-259.17Zm0,0"/>
  <path class="cls-1" d="m540.06,170.61c-45.81,0-82.99,37.12-82.99,82.83.2,45.72,37.18,82.74,82.99,82.8,45.66,0,82.67-37.04,82.67-82.8s-37.01-82.83-82.67-82.83h0Zm0,130.74c-26.47,0-47.97-21.37-47.97-47.91s21.5-48.04,47.97-48.04,47.89,21.55,47.89,48.04-21.51,47.91-47.89,47.91h0Zm0,0"/>
  <path class="cls-1" d="m243.59,754.85c-102.25,0-165.72,52.28-165.72,136.89,0,9.72,7.83,17.65,17.56,17.65h296.34c9.56,0,17.44-7.93,17.44-17.65,0-84.55-63.42-136.89-165.63-136.89h0Zm-129.6,119.46c11.56-78.22,100.78-84.65,129.6-84.65s118.02,6.43,129.54,84.65H113.99Zm0,0"/>
  <path class="cls-1" d="m243.59,571.68c-45.73,0-82.87,37.11-82.87,82.86.12,45.68,37.14,82.68,82.87,82.81,45.68,0,82.79-37.01,82.79-82.81s-37.11-82.86-82.79-82.86h0Zm0,130.82c-26.5,0-48.05-21.51-48.05-47.97s21.55-48.01,48.05-48.01,47.9,21.5,47.9,48.01-21.44,47.97-47.9,47.97h0Zm0,0"/>
  <path class="cls-1" d="m836.41,754.85c-102.12,0-165.69,52.28-165.69,136.89,0,9.72,7.77,17.65,17.47,17.65h296.39c9.68,0,17.53-7.93,17.53-17.65,0-84.55-63.52-136.89-165.72-136.89h0Zm-129.57,119.46c11.48-78.22,100.78-84.65,129.57-84.65s118.03,6.43,129.53,84.65h-259.1Zm0,0"/>
  <path class="cls-1" d="m836.41,571.68c-45.75,0-82.86,37.11-82.86,82.86.16,45.68,37.11,82.68,82.86,82.81,45.72,0,82.8-37.01,82.8-82.81s-37.08-82.86-82.8-82.86h0Zm0,130.82c-26.54,0-47.91-21.51-47.91-47.97s21.37-48.01,47.91-48.01,47.98,21.5,47.98,48.01-21.5,47.97-47.98,47.97h0Zm0,0"/>
  <path class="cls-1" d="m630.13,724.64l-72.75-73.11v-102.87c0-9.58-7.79-17.39-17.31-17.39s-17.59,7.81-17.59,17.39v102.87l-72.65,72.72c-6.96,6.81-6.96,17.89-.19,24.79,6.82,6.91,17.93,6.91,24.83.17l65.6-65.69,65.4,65.69c7.38,6.23,18.38,5.39,24.67-1.92,5.55-6.44,5.55-16.15,0-22.65h0Zm0,0"/>
</svg>