<svg width="20" height="19" viewBox="0 0 20 19" fill="none" xmlns="http://www.w3.org/2000/svg">
<path d="M17.8946 8.99512H19.9998C19.9998 4.22362 15.923 0.625 10.5156 0.625V2.48523C14.7914 2.48523 17.8946 5.22256 17.8946 8.99512Z" fill="white"/>
<path d="M10.5266 6.20481C12.7403 6.20481 13.6845 7.03913 13.6845 8.99517H15.7897C15.7897 5.99553 13.9213 4.34457 10.5266 4.34457V6.20481ZM14.1287 11.2675C13.9264 11.105 13.6606 11.0184 13.3874 11.0258C13.1142 11.0333 12.855 11.1343 12.6645 11.3075L10.1455 13.5965C9.53922 13.4942 8.32028 13.1584 7.06554 12.0525C5.81081 10.9428 5.43081 9.86298 5.31818 9.33095L7.90659 7.10424C8.10282 6.936 8.21726 6.70691 8.22571 6.46544C8.23416 6.22396 8.13595 5.98906 7.95186 5.81044L4.06239 2.03136C3.87823 1.85217 3.62227 1.74349 3.34887 1.72838C3.07548 1.71327 2.80618 1.79293 2.59819 1.95044L0.31398 3.68139C0.131993 3.84278 0.02337 4.05758 0.00871783 4.28504C-0.0070716 4.51757 -0.308123 10.0257 4.52555 14.2987C8.74238 18.0239 14.0245 18.2964 15.4792 18.2964C15.6918 18.2964 15.8224 18.2908 15.8571 18.2889C16.1145 18.2762 16.3574 18.1798 16.5392 18.0183L18.4971 15.999C18.6755 15.8153 18.7658 15.5774 18.7489 15.3359C18.732 15.0943 18.6092 14.868 18.4066 14.7052L14.1287 11.2675Z" fill="white"/>
</svg>
