<svg width="50" height="57" viewBox="0 0 50 57" fill="none" xmlns="http://www.w3.org/2000/svg">
<path d="M17.2122 22.2354C17.7561 22.2361 18.2998 22.2585 18.8416 22.3026C20.5686 22.4414 21.8377 23.6341 22.2328 25.0329L22.9022 27.4336C22.944 27.5767 23.0858 27.7762 23.395 27.9193C23.9319 28.1666 24.4502 28.4463 24.9476 28.7564C25.2335 28.9343 25.4892 28.9516 25.6426 28.9104L28.2063 28.2533C29.7032 27.8716 31.4418 28.2989 32.4366 29.6196C33.0642 30.4545 33.6127 31.3371 34.073 32.261C34.8051 33.7248 34.331 35.3448 33.2269 36.3618L31.3349 38.1098C31.221 38.2139 31.1071 38.4286 31.1303 38.7473C31.1675 39.3047 31.1675 39.8642 31.1303 40.4215C31.1071 40.7403 31.2187 40.955 31.3349 41.0591L33.2269 42.807C34.331 43.8241 34.8051 45.4441 34.073 46.9079C33.6118 47.8309 33.0643 48.7141 32.4366 49.5472C31.4418 50.87 29.7032 51.2972 28.2063 50.9134L25.6449 50.2585C25.4892 50.2173 25.2335 50.2346 24.9476 50.4124C24.4502 50.7227 23.9315 51.0024 23.395 51.2495C23.0858 51.3927 22.944 51.5922 22.9045 51.7353L22.2305 54.1338C21.84 55.5348 20.5686 56.7275 18.8416 56.8663C17.7575 56.9552 16.667 56.9552 15.5829 56.8663C13.8559 56.7275 12.5868 55.5348 12.194 54.1338L11.5223 51.7353C11.4804 51.5922 11.3387 51.3927 11.0295 51.2495C10.4924 51.0033 9.9737 50.7237 9.47687 50.4124C9.19097 50.2346 8.9353 50.2173 8.78189 50.2585L6.21815 50.9156C4.72128 51.2972 2.98268 50.87 1.98787 49.5493C1.36155 48.7147 0.81405 47.8309 0.351535 46.9079C-0.38063 45.4441 0.0935341 43.8241 1.19527 42.807L3.0896 41.0591C3.20582 40.955 3.31738 40.7403 3.29414 40.4215C3.25695 39.864 3.25695 39.3049 3.29414 38.7473C3.31738 38.4286 3.20582 38.2139 3.0896 38.1098L1.19527 36.3618C0.0935341 35.3448 -0.38063 33.7248 0.351535 32.261C0.812043 31.3377 1.35964 30.4545 1.98787 29.6217C2.98268 28.2989 4.72128 27.8716 6.21815 28.2555L8.77957 28.9104C8.9353 28.9516 9.19097 28.9343 9.47687 28.7564C9.97427 28.4463 10.4926 28.1666 11.0295 27.9193C11.3387 27.7762 11.4804 27.5767 11.52 27.4336L12.194 25.0351C12.5845 23.6341 13.8559 22.4414 15.5829 22.3004C16.1198 22.257 16.6637 22.2354 17.2122 22.2354ZM15.8851 25.5425C15.8014 25.549 15.634 25.6206 15.5666 25.8591L14.8949 28.2555C14.5532 29.4721 13.6188 30.3526 12.5752 30.834C12.1731 31.0205 11.7849 31.2309 11.413 31.4629C10.4438 32.0658 9.15843 32.3802 7.85913 32.0484L5.29539 31.3913C5.04204 31.3263 4.88863 31.426 4.84215 31.4889C4.33079 32.1655 3.88452 32.8855 3.5103 33.6359C3.47776 33.7031 3.46149 33.8744 3.64744 34.0479L5.54177 35.7958C6.49707 36.6763 6.84804 37.8712 6.77367 38.9534C6.74577 39.3737 6.74577 39.7952 6.77367 40.2155C6.84804 41.2977 6.49707 42.4926 5.54177 43.373L3.64744 45.121C3.45917 45.2945 3.47776 45.4658 3.5103 45.533C3.88685 46.2834 4.33079 47.0012 4.84215 47.6778C4.88863 47.7429 5.03971 47.8426 5.29539 47.7775L7.85681 47.1205C9.15843 46.7887 10.4438 47.1031 11.413 47.706C11.7873 47.938 12.1754 48.1484 12.5775 48.3349C13.6165 48.8163 14.5532 49.699 14.8949 50.9134L15.5666 53.3097C15.634 53.5461 15.8014 53.6199 15.8851 53.6264C16.7682 53.6979 17.6563 53.6979 18.5394 53.6264C18.6231 53.6199 18.7905 53.5483 18.8579 53.3097L19.5296 50.9134C19.8713 49.6968 20.8057 48.8163 21.8493 48.3349C22.2514 48.1484 22.6396 47.938 23.0115 47.706C23.9807 47.1031 25.2661 46.7887 26.5654 47.1205L29.1291 47.7775C29.3825 47.8404 29.5359 47.7429 29.5823 47.68C30.0937 47.0012 30.5376 46.2834 30.9142 45.533C30.9467 45.4658 30.963 45.2945 30.7771 45.121L28.8827 43.373C27.9274 42.4926 27.5764 41.2977 27.6508 40.2155C27.6787 39.7952 27.6787 39.3737 27.6508 38.9534C27.5764 37.8712 27.9274 36.6763 28.8827 35.7958L30.7771 34.0479C30.9653 33.8744 30.9467 33.7031 30.9142 33.6359C30.539 32.8857 30.0933 32.1679 29.5823 31.4911C29.5359 31.426 29.3848 31.3263 29.1291 31.3913L26.5677 32.0484C25.2661 32.3802 23.9807 32.0658 23.0115 31.4629C22.6384 31.2299 22.2494 31.0198 21.847 30.834C20.808 30.3526 19.8713 29.4699 19.5296 28.2555L18.8579 25.8591C18.7905 25.6206 18.6231 25.549 18.5394 25.5425C17.6563 25.471 16.7682 25.471 15.8851 25.5425ZM24.1852 39.5844C24.1852 41.3099 23.4506 42.9647 22.1429 44.1848C20.8352 45.4049 19.0616 46.0904 17.2122 46.0904C15.3629 46.0904 13.5893 45.4049 12.2816 44.1848C10.9739 42.9647 10.2392 41.3099 10.2392 39.5844C10.2392 37.859 10.9739 36.2042 12.2816 34.9841C13.5893 33.764 15.3629 33.0785 17.2122 33.0785C19.0616 33.0785 20.8352 33.764 22.1429 34.9841C23.4506 36.2042 24.1852 37.859 24.1852 39.5844ZM20.6987 39.5844C20.6984 38.7214 20.3307 37.8939 19.6764 37.2838C19.0221 36.6738 18.1349 36.3312 17.2099 36.3315C16.2849 36.3318 15.398 36.6749 14.7441 37.2853C14.0903 37.8958 13.7231 38.7236 13.7234 39.5866C13.7237 40.4496 14.0915 41.2772 14.7458 41.8872C15.0697 42.1893 15.4543 42.4289 15.8775 42.5923C16.3007 42.7557 16.7542 42.8397 17.2122 42.8396C17.6703 42.8394 18.1237 42.7551 18.5468 42.5915C18.9699 42.4278 19.3543 42.188 19.6781 41.8857C20.0018 41.5834 20.2586 41.2246 20.4337 40.8298C20.6088 40.4349 20.6989 40.0118 20.6987 39.5844Z" fill="#B7B7B7"/>
<path d="M27.19 4.79731C27.5338 4.64616 27.8844 4.50881 28.2409 4.38564C29.3763 3.99198 30.5599 4.39176 31.2574 5.16528L32.4489 6.4953C32.5212 6.57406 32.6746 6.66058 32.9158 6.66484C33.3341 6.67137 33.7511 6.70363 34.1647 6.7609C34.4022 6.79356 34.5693 6.73326 34.653 6.66447L36.0622 5.53479C36.8856 4.87646 38.1208 4.66176 39.1721 5.21882C39.8359 5.57136 40.465 5.97606 41.0515 6.43141C41.9828 7.1521 42.2019 8.30765 41.8301 9.25791L41.1945 10.8895C41.1558 10.987 41.1526 11.1544 41.2694 11.3493C41.4713 11.691 41.6505 12.0445 41.8054 12.4069C41.8928 12.6148 42.032 12.7193 42.1388 12.7527L43.8937 13.3296C44.9168 13.6644 45.735 14.5556 45.7412 15.6844C45.7454 16.396 45.6822 17.1066 45.5525 17.8078C45.3476 18.9208 44.386 19.6753 43.3175 19.85L41.4897 20.1502C41.3781 20.1675 41.2221 20.2498 41.0985 20.4418C40.8835 20.7765 40.6454 21.0977 40.3856 21.4034C40.2361 21.58 40.2105 21.7455 40.2313 21.847L40.5734 23.5501C40.7753 24.5439 40.354 25.6518 39.3075 26.2208C38.651 26.5792 37.9622 26.8831 37.2488 27.1291C36.1134 27.5228 34.9297 27.123 34.233 26.3474L33.0407 25.0194C32.9685 24.9407 32.815 24.8541 32.5739 24.8499C32.1558 24.844 31.7385 24.812 31.325 24.7538C31.0875 24.7212 30.9204 24.7815 30.8367 24.8503L29.4275 25.9799C28.604 26.6383 27.3689 26.853 26.3176 26.2959C25.6547 25.9432 25.0258 25.5375 24.4381 25.0833C23.5069 24.3626 23.2878 23.2071 23.6581 22.2575L24.2952 20.6253C24.3353 20.5271 24.337 20.3604 24.2203 20.1655C24.0183 19.8236 23.8392 19.4704 23.6842 19.1078C23.5968 18.8999 23.4576 18.7954 23.3509 18.762L21.5945 18.1858C20.5729 17.8503 19.7546 16.9591 19.7485 15.8303C19.7438 15.1187 19.8069 14.4081 19.9372 13.7069C20.1421 12.5939 21.1036 11.8395 22.1722 11.6647L24 11.3646C24.1116 11.3472 24.2675 11.265 24.3912 11.0729C24.6061 10.7384 24.844 10.4172 25.1041 10.1114C25.2535 9.93477 25.2792 9.76921 25.2583 9.66778L24.9162 7.96467C24.7144 6.97081 25.1357 5.86294 26.1815 5.29254C26.5068 5.11549 26.8435 4.9502 27.19 4.79731ZM27.4105 7.25648C27.3597 7.28392 27.2769 7.37577 27.3107 7.54526L27.6536 9.24634C27.8273 10.1102 27.5189 10.9268 27.0137 11.5218C26.8194 11.7517 26.6416 11.9928 26.4809 12.2431C26.0616 12.8941 25.3503 13.451 24.4233 13.6035L22.5933 13.903C22.4124 13.9325 22.3474 14.0383 22.3382 14.0909C22.2318 14.6609 22.1804 15.2401 22.1842 15.8185C22.1852 15.87 22.2297 15.9828 22.4028 16.0405L24.1591 16.6168C25.0445 16.9067 25.6488 17.5638 25.9483 18.2681C26.0653 18.5414 26.2003 18.8077 26.3525 19.0655C26.7459 19.7284 26.9068 20.5811 26.5852 21.4036L25.9481 23.0358C25.8847 23.1979 25.9513 23.3009 25.9934 23.3343C26.4715 23.7034 26.9818 24.0331 27.5215 24.318C27.5717 24.3462 27.6991 24.3671 27.8398 24.2547L29.2475 23.1257C29.9636 22.5533 30.8763 22.3937 31.6816 22.5044C31.9923 22.5467 32.3049 22.5714 32.6186 22.5771C33.4291 22.5917 34.3035 22.8882 34.9082 23.5602L36.0998 24.8868C36.2181 25.0174 36.3474 25.0173 36.4023 24.9981C36.9831 24.7971 37.5442 24.5496 38.0792 24.2582C38.13 24.2308 38.2128 24.139 38.179 23.9695L37.8361 22.2684C37.6624 21.4046 37.9708 20.5879 38.4759 19.9929C38.6702 19.763 38.8481 19.5219 39.0088 19.2717C39.428 18.6207 40.1394 18.0638 41.0664 17.9112L42.8964 17.6118C43.0766 17.5809 43.1423 17.4765 43.1515 17.4238C43.2572 16.8525 43.3078 16.2752 43.3055 15.6963C43.3045 15.6447 43.2599 15.532 43.0869 15.4742L41.3305 14.898C40.4451 14.608 39.8408 13.9509 39.5413 13.2466C39.4244 12.9733 39.2894 12.707 39.1372 12.4492C38.7437 11.7863 38.5829 10.9336 38.9045 10.1112L39.5415 8.47893C39.6049 8.31686 39.5383 8.21381 39.4962 8.18041C39.019 7.81105 38.5077 7.48185 37.9682 7.19669C37.918 7.16854 37.7906 7.14763 37.6499 7.26L36.2421 8.38903C35.5261 8.96143 34.6134 9.12104 33.8081 9.01032C33.4977 8.96709 33.1847 8.94279 32.871 8.93759C32.0605 8.92303 31.1862 8.62652 30.5815 7.95455L29.3899 6.62792C29.2709 6.496 29.1423 6.49744 29.0873 6.51665C28.5065 6.71759 27.9455 6.96513 27.4105 7.25648ZM37.1499 13.8138C37.7024 14.9039 37.7681 16.154 37.3327 17.2893C36.8972 18.4246 35.9962 19.3519 34.8279 19.8674C33.6596 20.3828 32.3197 20.4442 31.1029 20.0379C29.8861 19.6316 28.8922 18.7909 28.3397 17.7009C27.7873 16.6108 27.7215 15.3607 28.157 14.2254C28.5925 13.0902 29.4935 12.1628 30.6618 11.6473C31.8301 11.1319 33.17 11.0706 34.3868 11.4769C35.6035 11.8832 36.5975 12.7238 37.1499 13.8138ZM34.9474 14.7856C34.6709 14.2405 34.1736 13.8202 33.5649 13.6172C32.9563 13.4141 32.2861 13.445 31.7018 13.703C31.1176 13.961 30.6671 14.425 30.4495 14.9929C30.2319 15.5607 30.265 16.186 30.5415 16.7311C30.818 17.2763 31.3153 17.6966 31.924 17.8996C32.2253 18.0001 32.545 18.0443 32.8647 18.0296C33.1843 18.0148 33.4978 17.9415 33.7871 17.8137C34.0764 17.686 34.3358 17.5063 34.5507 17.285C34.7656 17.0637 34.9316 16.8051 35.0394 16.5239C35.1471 16.2427 35.1945 15.9445 35.1787 15.6462C35.1629 15.348 35.0843 15.0555 34.9474 14.7856Z" fill="#B7B7B7"/>
</svg>
