<svg width="22" height="22" viewBox="0 0 22 22" fill="none" xmlns="http://www.w3.org/2000/svg">
<path d="M19.6033 0.56897C20.2343 0.56897 20.8395 0.819646 21.2857 1.26585C21.7319 1.71206 21.9826 2.31725 21.9826 2.94828V19.6034C21.9826 20.2345 21.7319 20.8396 21.2857 21.2859C20.8395 21.7321 20.2343 21.9827 19.6033 21.9827H2.94816C2.31712 21.9827 1.71194 21.7321 1.26573 21.2859C0.819524 20.8396 0.568848 20.2345 0.568848 19.6034V2.94828C0.568848 2.31725 0.819524 1.71206 1.26573 1.26585C1.71194 0.819646 2.31712 0.56897 2.94816 0.56897H19.6033ZM19.0085 19.0086V12.7034C19.0085 11.6749 18.5999 10.6884 17.8726 9.96109C17.1452 9.23377 16.1588 8.82517 15.1302 8.82517C14.119 8.82517 12.9412 9.44379 12.3702 10.3717V9.0512H9.05108V19.0086H12.3702V13.1436C12.3702 12.2276 13.1078 11.4781 14.0238 11.4781C14.4656 11.4781 14.8892 11.6536 15.2015 11.9659C15.5139 12.2783 15.6893 12.7019 15.6893 13.1436V19.0086H19.0085ZM5.1847 7.18345C5.71477 7.18345 6.22313 6.97288 6.59794 6.59806C6.97276 6.22325 7.18332 5.71489 7.18332 5.18483C7.18332 4.07845 6.29108 3.17431 5.1847 3.17431C4.65148 3.17431 4.1401 3.38613 3.76306 3.76318C3.38601 4.14022 3.17419 4.65161 3.17419 5.18483C3.17419 6.2912 4.07833 7.18345 5.1847 7.18345ZM6.83832 19.0086V9.0512H3.54298V19.0086H6.83832Z" fill="white"/>
</svg>
