<svg width="25" height="23" viewBox="0 0 25 23" fill="none" xmlns="http://www.w3.org/2000/svg">
<path d="M12.4966 7.36204C10.2014 7.36204 8.32828 9.01721 8.32828 11.0454C8.32828 13.0736 10.2014 14.7288 12.4966 14.7288C14.7919 14.7288 16.665 13.0736 16.665 11.0454C16.665 9.01721 14.7919 7.36204 12.4966 7.36204ZM24.9986 11.0454C24.9986 9.52011 25.0142 8.00863 24.9173 6.4861C24.8204 4.71764 24.3638 3.14813 22.9004 1.85494C21.4338 0.558992 19.6607 0.158325 17.6594 0.0726656C15.9333 -0.0129942 14.2228 0.000821903 12.4998 0.000821903C10.7736 0.000821903 9.06313 -0.0129942 7.34013 0.0726656C5.33881 0.158325 3.56265 0.561755 2.09918 1.85494C0.632595 3.15089 0.179172 4.71764 0.0822335 6.4861C-0.0147052 8.0114 0.000930124 9.52288 0.000930124 11.0454C0.000930124 12.5679 -0.0147052 14.0822 0.0822335 15.6047C0.179172 17.3732 0.635722 18.9427 2.09918 20.2359C3.56577 21.5318 5.33881 21.9325 7.34013 22.0182C9.06626 22.1038 10.7768 22.09 12.4998 22.09C14.2259 22.09 15.9364 22.1038 17.6594 22.0182C19.6607 21.9325 21.4369 21.5291 22.9004 20.2359C24.3669 18.9399 24.8204 17.3732 24.9173 15.6047C25.0174 14.0822 24.9986 12.5707 24.9986 11.0454ZM12.4966 16.7128C8.94743 16.7128 6.08305 14.1817 6.08305 11.0454C6.08305 7.90916 8.94743 5.37805 12.4966 5.37805C16.0458 5.37805 18.9102 7.90916 18.9102 11.0454C18.9102 14.1817 16.0458 16.7128 12.4966 16.7128ZM19.1729 6.46952C18.3442 6.46952 17.675 5.87819 17.675 5.14594C17.675 4.41368 18.3442 3.82235 19.1729 3.82235C20.0016 3.82235 20.6708 4.41368 20.6708 5.14594C20.671 5.31981 20.6324 5.49202 20.5572 5.65271C20.4821 5.81339 20.3717 5.95939 20.2326 6.08234C20.0935 6.20529 19.9282 6.30277 19.7464 6.36921C19.5646 6.43565 19.3697 6.46974 19.1729 6.46952Z" fill="white"/>
</svg>
