<svg width="36" height="35" viewBox="0 0 36 35" fill="none" xmlns="http://www.w3.org/2000/svg">
<path d="M28.0465 14.5421V20.2875M20.5833 27.4692L23.071 26.0328L25.5588 24.5965M15.6078 27.4692L13.1193 26.0328L10.6316 24.5965M8.14453 14.5421V20.2875M10.6316 10.233L13.12 8.7967L15.6078 7.36035M20.5833 7.36035L23.071 8.7967L25.5588 10.233" stroke="#F8F8F8" stroke-width="1.68083" stroke-linecap="round" stroke-linejoin="round"/>
<path d="M18.0951 31.7777C18.857 31.7777 19.5876 31.475 20.1264 30.9363C20.6651 30.3976 20.9678 29.6669 20.9678 28.905C20.9678 28.1431 20.6651 27.4124 20.1264 26.8737C19.5876 26.335 18.857 26.0323 18.0951 26.0323C17.3332 26.0323 16.6025 26.335 16.0638 26.8737C15.525 27.4124 15.2224 28.1431 15.2224 28.905C15.2224 29.6669 15.525 30.3976 16.0638 30.9363C16.6025 31.475 17.3332 31.7777 18.0951 31.7777ZM18.0951 8.79616C18.857 8.79616 19.5876 8.49351 20.1264 7.95477C20.6651 7.41604 20.9678 6.68536 20.9678 5.92347C20.9678 5.16159 20.6651 4.43091 20.1264 3.89217C19.5876 3.35344 18.857 3.05078 18.0951 3.05078C17.3332 3.05078 16.6025 3.35344 16.0638 3.89217C15.525 4.43091 15.2224 5.16159 15.2224 5.92347C15.2224 6.68536 15.525 7.41604 16.0638 7.95477C16.6025 8.49351 17.3332 8.79616 18.0951 8.79616ZM18.0951 20.2869C18.857 20.2869 19.5876 19.9843 20.1264 19.4455C20.6651 18.9068 20.9678 18.1761 20.9678 17.4142C20.9678 16.6524 20.6651 15.9217 20.1264 15.3829C19.5876 14.8442 18.857 14.5415 18.0951 14.5415C17.3332 14.5415 16.6025 14.8442 16.0638 15.3829C15.525 15.9217 15.2224 16.6524 15.2224 17.4142C15.2224 18.1761 15.525 18.9068 16.0638 19.4455C16.6025 19.9843 17.3332 20.2869 18.0951 20.2869ZM28.1495 14.5415C28.9114 14.5415 29.6421 14.2389 30.1808 13.7002C30.7195 13.1614 31.0222 12.4307 31.0222 11.6689C31.0222 10.907 30.7195 10.1763 30.1808 9.63756C29.6421 9.09882 28.9114 8.79616 28.1495 8.79616C27.3876 8.79616 26.6569 9.09882 26.1182 9.63756C25.5795 10.1763 25.2768 10.907 25.2768 11.6689C25.2768 12.4307 25.5795 13.1614 26.1182 13.7002C26.6569 14.2389 27.3876 14.5415 28.1495 14.5415ZM28.1495 26.0323C28.9114 26.0323 29.6421 25.7297 30.1808 25.1909C30.7195 24.6522 31.0222 23.9215 31.0222 23.1596C31.0222 22.3977 30.7195 21.6671 30.1808 21.1283C29.6421 20.5896 28.9114 20.2869 28.1495 20.2869C27.3876 20.2869 26.6569 20.5896 26.1182 21.1283C25.5795 21.6671 25.2768 22.3977 25.2768 23.1596C25.2768 23.9215 25.5795 24.6522 26.1182 25.1909C26.6569 25.7297 27.3876 26.0323 28.1495 26.0323ZM8.04066 14.5415C8.80255 14.5415 9.53323 14.2389 10.072 13.7002C10.6107 13.1614 10.9134 12.4307 10.9134 11.6689C10.9134 10.907 10.6107 10.1763 10.072 9.63756C9.53323 9.09882 8.80255 8.79616 8.04066 8.79616C7.27878 8.79616 6.54809 9.09882 6.00936 9.63756C5.47063 10.1763 5.16797 10.907 5.16797 11.6689C5.16797 12.4307 5.47063 13.1614 6.00936 13.7002C6.54809 14.2389 7.27878 14.5415 8.04066 14.5415ZM8.04066 26.0323C8.80255 26.0323 9.53323 25.7297 10.072 25.1909C10.6107 24.6522 10.9134 23.9215 10.9134 23.1596C10.9134 22.3977 10.6107 21.6671 10.072 21.1283C9.53323 20.5896 8.80255 20.2869 8.04066 20.2869C7.27878 20.2869 6.54809 20.5896 6.00936 21.1283C5.47063 21.6671 5.16797 22.3977 5.16797 23.1596C5.16797 23.9215 5.47063 24.6522 6.00936 25.1909C6.54809 25.7297 7.27878 26.0323 8.04066 26.0323Z" stroke="#F8F8F8" stroke-width="1.68083" stroke-linecap="round" stroke-linejoin="round"/>
</svg>
