<svg width="33" height="33" viewBox="0 0 33 33" fill="none" xmlns="http://www.w3.org/2000/svg">
<path d="M24.5131 5.2334H8.43464C6.76966 5.2334 5.41992 6.58313 5.41992 8.24812V24.3266C5.41992 25.9916 6.76966 27.3413 8.43464 27.3413H24.5131C26.1781 27.3413 27.5279 25.9916 27.5279 24.3266V8.24812C27.5279 6.58313 26.1781 5.2334 24.5131 5.2334Z" stroke="#F8F8F8" stroke-width="2.00981" stroke-linejoin="round"/>
<path d="M22.5032 9.25293H10.4444C9.88936 9.25293 9.43945 9.70284 9.43945 10.2578V22.3167C9.43945 22.8717 9.88936 23.3216 10.4444 23.3216H22.5032C23.0582 23.3216 23.5081 22.8717 23.5081 22.3167V10.2578C23.5081 9.70284 23.0582 9.25293 22.5032 9.25293Z" stroke="#F8F8F8" stroke-width="2.00981" stroke-linejoin="round"/>
<path d="M16.4739 5.23345V3.22363M21.4985 5.23345V3.22363M11.4494 5.23345V3.22363M16.4739 29.3512V27.3414M21.4985 29.3512V27.3414M11.4494 29.3512V27.3414M27.5279 16.2874H29.5377M27.5279 21.3119H29.5377M27.5279 11.2629H29.5377M3.41016 16.2874H5.41997M3.41016 21.3119H5.41997M3.41016 11.2629H5.41997" stroke="#F8F8F8" stroke-width="2.00981" stroke-linecap="round" stroke-linejoin="round"/>
</svg>
