<svg width="17" height="19" viewBox="0 0 17 19" fill="none" xmlns="http://www.w3.org/2000/svg">
<path d="M8.23114 0.667969C12.7773 0.667969 16.4623 3.9242 16.4623 7.94135C16.4623 11.0148 14.0183 14.3643 9.19355 18.0256C8.92528 18.2292 8.58323 18.3411 8.22956 18.3408C7.87589 18.3405 7.53407 18.2282 7.2662 18.0241L6.94708 17.7794C2.33596 14.2136 0 10.9462 0 7.94135C0 3.9242 3.68502 0.667969 8.23114 0.667969ZM8.23114 5.14389C7.39151 5.14389 6.58627 5.43862 5.99257 5.96325C5.39886 6.48787 5.06532 7.19942 5.06532 7.94135C5.06532 8.68328 5.39886 9.39482 5.99257 9.91945C6.58627 10.4441 7.39151 10.7388 8.23114 10.7388C9.07077 10.7388 9.87601 10.4441 10.4697 9.91945C11.0634 9.39482 11.397 8.68328 11.397 7.94135C11.397 7.19942 11.0634 6.48787 10.4697 5.96325C9.87601 5.43862 9.07077 5.14389 8.23114 5.14389Z" fill="white"/>
</svg>
