<svg width="25" height="17" viewBox="0 0 25 17" fill="none" xmlns="http://www.w3.org/2000/svg">
<path d="M24.4782 2.95284C24.3359 2.48449 24.0569 2.05738 23.6691 1.71426C23.2813 1.37114 22.7983 1.12404 22.2684 0.997696C20.3181 0.53418 12.5 0.53418 12.5 0.53418C12.5 0.53418 4.68192 0.53418 2.73158 0.99523C2.20151 1.12117 1.71826 1.36813 1.33037 1.71131C0.942486 2.0545 0.663614 2.48182 0.521763 2.95038C-1.06437e-07 4.67624 0 8.27588 0 8.27588C0 8.27588 -1.06437e-07 11.8755 0.521763 13.5989C0.809152 14.5506 1.65737 15.3001 2.73158 15.5541C4.68192 16.0176 12.5 16.0176 12.5 16.0176C12.5 16.0176 20.3181 16.0176 22.2684 15.5541C23.3454 15.3001 24.1908 14.5506 24.4782 13.5989C25 11.8755 25 8.27588 25 8.27588C25 8.27588 25 4.67624 24.4782 2.95284ZM10.0167 11.5797V4.9721L16.49 8.25122L10.0167 11.5797Z" fill="white"/>
</svg>
