<svg width="18" height="13" viewBox="0 0 18 13" fill="none" xmlns="http://www.w3.org/2000/svg">
<path d="M17.7333 3.28906V10.2062C17.7333 11.402 16.6367 12.3711 15.2833 12.3711H2.45C1.80022 12.3711 1.17705 12.143 0.717588 11.737C0.258124 11.331 0 10.7803 0 10.2062V3.28906L8.58574 7.46224C8.76074 7.54719 8.97307 7.54719 9.1476 7.46224L17.7333 3.28865V3.28906ZM15.2833 9.3106e-09C15.9229 5.25175e-05 16.5371 0.221093 16.9947 0.615906C17.4523 1.01072 17.7171 1.548 17.7324 2.11298L8.86667 6.42225L0.000933266 2.11257L0.00186675 2.07546C0.0280013 1.51721 0.297363 0.989515 0.753624 0.60271C1.20989 0.215905 1.81771 -5.17742e-05 2.45 9.3106e-09H15.2833Z" fill="white"/>
</svg>
