<svg width="54" height="54" viewBox="0 0 54 54" fill="none" xmlns="http://www.w3.org/2000/svg">
<path d="M38.248 9.00098C37.6513 9.00098 37.079 8.76392 36.6571 8.34197C36.2351 7.92001 35.998 7.34771 35.998 6.75098C35.998 6.15424 36.2351 5.58194 36.6571 5.15999C37.079 4.73803 37.6513 4.50098 38.248 4.50098H47.248C47.8448 4.50098 48.4171 4.73803 48.839 5.15999C49.261 5.58194 49.498 6.15424 49.498 6.75098V15.751C49.498 16.3477 49.261 16.92 48.839 17.342C48.4171 17.7639 47.8448 18.001 47.248 18.001C46.6513 18.001 46.079 17.7639 45.6571 17.342C45.2351 16.92 44.998 16.3477 44.998 15.751V12.1825L31.9638 25.2167C31.5419 25.6385 30.9697 25.8755 30.373 25.8755C29.7764 25.8755 29.2042 25.6385 28.7823 25.2167L22.498 18.9325L10.5888 30.8417C10.1644 31.2516 9.59609 31.4784 9.00614 31.4732C8.4162 31.4681 7.85187 31.2315 7.43471 30.8143C7.01754 30.3972 6.78091 29.8328 6.77578 29.2429C6.77065 28.6529 6.99744 28.0846 7.4073 27.6602L20.9073 14.1602C21.3292 13.7384 21.9014 13.5015 22.498 13.5015C23.0947 13.5015 23.6669 13.7384 24.0888 14.1602L30.373 20.4445L41.8165 9.00098H38.248ZM11.248 40.501V47.251C11.248 47.8477 11.011 48.42 10.589 48.842C10.1671 49.2639 9.59478 49.501 8.99805 49.501C8.40131 49.501 7.82901 49.2639 7.40706 48.842C6.9851 48.42 6.74805 47.8477 6.74805 47.251V40.501C6.74805 39.9042 6.9851 39.3319 7.40706 38.91C7.82901 38.488 8.40131 38.251 8.99805 38.251C9.59478 38.251 10.1671 38.488 10.589 38.91C11.011 39.3319 11.248 39.9042 11.248 40.501ZM22.498 31.501C22.498 30.9042 22.261 30.3319 21.839 29.91C21.4171 29.488 20.8448 29.251 20.248 29.251C19.6513 29.251 19.079 29.488 18.6571 29.91C18.2351 30.3319 17.998 30.9042 17.998 31.501V47.251C17.998 47.8477 18.2351 48.42 18.6571 48.842C19.079 49.2639 19.6513 49.501 20.248 49.501C20.8448 49.501 21.4171 49.2639 21.839 48.842C22.261 48.42 22.498 47.8477 22.498 47.251V31.501ZM31.498 33.751C32.0948 33.751 32.6671 33.988 33.089 34.41C33.511 34.8319 33.748 35.4042 33.748 36.001V47.251C33.748 47.8477 33.511 48.42 33.089 48.842C32.6671 49.2639 32.0948 49.501 31.498 49.501C30.9013 49.501 30.329 49.2639 29.9071 48.842C29.4851 48.42 29.248 47.8477 29.248 47.251V36.001C29.248 35.4042 29.4851 34.8319 29.9071 34.41C30.329 33.988 30.9013 33.751 31.498 33.751ZM44.998 24.751C44.998 24.1542 44.761 23.5819 44.339 23.16C43.9171 22.738 43.3448 22.501 42.748 22.501C42.1513 22.501 41.579 22.738 41.1571 23.16C40.7351 23.5819 40.498 24.1542 40.498 24.751V47.251C40.498 47.8477 40.7351 48.42 41.1571 48.842C41.579 49.2639 42.1513 49.501 42.748 49.501C43.3448 49.501 43.9171 49.2639 44.339 48.842C44.761 48.42 44.998 47.8477 44.998 47.251V24.751Z" fill="#B7B7B7"/>
</svg>
