<svg width="52" height="51" viewBox="0 0 52 51" fill="none" xmlns="http://www.w3.org/2000/svg">
<path d="M7.55097 30.6814C8.54706 34.5911 10.7156 38.1024 13.7654 40.7438C16.8151 43.3852 20.6001 45.0302 24.612 45.4579C28.6238 45.8856 32.6705 45.0755 36.2086 43.1365C39.7467 41.1974 42.6067 38.2221 44.4047 34.6103C46.2027 30.9984 46.8524 26.9229 46.2667 22.931C45.681 18.9392 43.8879 15.2221 41.1282 12.2789C38.3685 9.33578 34.7744 7.30751 30.8284 6.46648C26.8824 5.62546 22.7736 6.01195 19.0536 7.57406C17.9375 8.04044 16.6028 7.47724 16.3043 6.3048C16.1795 5.84934 16.2221 5.36422 16.4243 4.93746C16.6266 4.5107 16.9751 4.17058 17.4067 3.97881C22.5469 1.78712 28.2959 1.48039 33.6402 3.11266C38.9845 4.74494 43.581 8.21143 46.6195 12.9011C49.6581 17.5908 50.9435 23.2026 50.2493 28.7473C49.5551 34.292 46.9259 39.4137 42.825 43.2095C38.724 47.0054 33.4148 49.2317 27.833 49.496C22.2513 49.7604 16.7554 48.0458 12.3141 44.6545C7.87283 41.2632 4.77129 36.413 3.55619 30.9587C2.34109 25.5044 3.09045 19.7962 5.67218 14.8404L3.01057 15.518C2.50248 15.6473 1.96382 15.5695 1.51308 15.3017C1.06234 15.0339 0.73645 14.598 0.607096 14.0899C0.477743 13.5819 0.555524 13.0432 0.823329 12.5925C1.09113 12.1417 1.52703 11.8158 2.03511 11.6865L9.69809 9.73557C10.7556 9.46634 11.8323 10.1061 12.1016 11.1636L14.0525 18.8266C14.1818 19.3347 14.104 19.8733 13.8362 20.3241C13.5684 20.7748 13.1325 21.1007 12.6245 21.23C12.1164 21.3594 11.5777 21.2816 11.127 21.0138C10.6762 20.746 10.3503 20.3101 10.221 19.802L9.34308 16.3537C6.95363 20.7305 6.31319 25.8508 7.55097 30.6814Z" fill="#C4C4C4"/>
<path d="M32.0807 13.067C32.5608 13.067 33.0212 13.2577 33.3607 13.5972C33.7002 13.9366 33.8909 14.397 33.8909 14.8771V36.5988C33.8909 37.0789 33.7002 37.5393 33.3607 37.8788C33.0212 38.2182 32.5608 38.4089 32.0807 38.4089H21.2199C20.7398 38.4089 20.2794 38.2182 19.9399 37.8788C19.6005 37.5393 19.4097 37.0789 19.4097 36.5988V14.8771C19.4097 14.397 19.6005 13.9366 19.9399 13.5972C20.2794 13.2577 20.7398 13.067 21.2199 13.067H32.0807ZM21.2199 11.2568C20.2597 11.2568 19.3389 11.6383 18.66 12.3172C17.981 12.9961 17.5996 13.917 17.5996 14.8771V36.5988C17.5996 37.559 17.981 38.4798 18.66 39.1587C19.3389 39.8377 20.2597 40.2191 21.2199 40.2191H32.0807C33.0409 40.2191 33.9617 39.8377 34.6406 39.1587C35.3196 38.4798 35.701 37.559 35.701 36.5988V14.8771C35.701 13.917 35.3196 12.9961 34.6406 12.3172C33.9617 11.6383 33.0409 11.2568 32.0807 11.2568H21.2199Z" fill="#C4C4C4"/>
<path d="M26.6515 35.2024C27.0698 35.2024 27.471 35.0363 27.7668 34.7405C28.0626 34.4447 28.2288 34.0435 28.2288 33.6251C28.2288 33.2068 28.0626 32.8056 27.7668 32.5098C27.471 32.214 27.0698 32.0479 26.6515 32.0479C26.2332 32.0479 25.832 32.214 25.5362 32.5098C25.2404 32.8056 25.0742 33.2068 25.0742 33.6251C25.0742 34.0435 25.2404 34.4447 25.5362 34.7405C25.832 35.0363 26.2332 35.2024 26.6515 35.2024Z" fill="#C4C4C4"/>
</svg>
