<svg width="28" height="22" viewBox="0 0 28 22" fill="none" xmlns="http://www.w3.org/2000/svg">
<path d="M27.0624 2.6096C26.0672 3.05059 24.9981 3.34856 23.8742 3.48324C25.0339 2.78933 25.9015 1.69719 26.3151 0.410618C25.2256 1.05779 24.0331 1.51332 22.7896 1.75742C21.9533 0.864556 20.8457 0.272751 19.6387 0.0738863C18.4316 -0.124978 17.1927 0.080224 16.1142 0.657635C15.0358 1.23505 14.1781 2.15236 13.6744 3.26716C13.1707 4.38195 13.0491 5.63186 13.3286 6.82283C11.1209 6.71198 8.96116 6.13817 6.98958 5.13862C5.018 4.13907 3.27862 2.73613 1.88433 1.02085C1.40759 1.84324 1.13346 2.79672 1.13346 3.81219C1.13293 4.72634 1.35805 5.62649 1.78884 6.43277C2.21963 7.23906 2.84278 7.92654 3.603 8.43423C2.72135 8.40617 1.85915 8.16795 1.08817 7.73937V7.81088C1.08808 9.09302 1.53158 10.3357 2.34342 11.3281C3.15525 12.3204 4.28542 13.0014 5.54215 13.2553C4.72428 13.4767 3.8668 13.5093 3.03448 13.3507C3.38905 14.4539 4.07974 15.4186 5.00983 16.1097C5.93992 16.8009 7.06287 17.1839 8.22146 17.2051C6.25469 18.7491 3.82574 19.5866 1.32535 19.5829C0.882431 19.583 0.439888 19.5571 0 19.5054C2.53804 21.1373 5.4925 22.0034 8.50989 22C18.7241 22 24.308 13.5402 24.308 6.20306C24.308 5.96469 24.302 5.72393 24.2913 5.48556C25.3775 4.7001 26.315 3.72744 27.06 2.61318L27.0624 2.6096Z" fill="white"/>
</svg>
