<?xml version="1.0" standalone="no"?>
<!DOCTYPE svg PUBLIC "-//W3C//DTD SVG 20010904//EN"
 "http://www.w3.org/TR/2001/REC-SVG-20010904/DTD/svg10.dtd">
<svg version="1.0" xmlns="http://www.w3.org/2000/svg"
 width="128.000000pt" height="128.000000pt" viewBox="0 0 128.000000 128.000000"
 preserveAspectRatio="xMidYMid meet">
<metadata>
Created by potrace 1.16, written by Peter Selinger 2001-2019
</metadata>
<g transform="translate(0.000000,128.000000) scale(0.100000,-0.100000)"
fill="#000000" stroke="none">
<path d="M560 1000 l0 -280 -280 0 -280 0 0 -80 0 -80 280 0 280 0 0 -280 0
-280 80 0 80 0 0 280 0 280 280 0 280 0 0 80 0 80 -280 0 -280 0 0 280 0 280
-80 0 -80 0 0 -280z"/>
<path d="M408 1236 c-66 -27 -148 -74 -148 -84 0 -4 47 -54 105 -112 l105
-105 0 163 c0 89 -1 162 -2 162 -2 0 -28 -11 -60 -24z"/>
<path d="M810 1092 l0 -167 105 105 c58 58 104 111 103 119 -3 16 -104 74
-165 95 l-43 15 0 -167z"/>
<path d="M931 1006 c-111 -112 -122 -126 -119 -155 3 -31 4 -31 141 107 132
132 137 139 119 155 -17 16 -24 10 -141 -107z"/>
<path d="M167 1072 c-16 -17 -10 -24 107 -141 112 -111 126 -122 155 -119 31
3 31 4 -107 141 -132 132 -139 137 -155 119z"/>
<path d="M108 998 c-24 -36 -59 -108 -74 -150 l-13 -38 167 0 167 0 -105 105
c-58 58 -110 105 -116 105 -7 0 -18 -10 -26 -22z"/>
<path d="M1041 919 c-56 -55 -101 -103 -101 -105 0 -2 72 -4 160 -4 l160 0
-20 53 c-12 28 -22 57 -23 62 -1 6 -4 12 -8 15 -3 3 -15 22 -28 43 -12 20 -26
37 -31 37 -5 0 -54 -45 -109 -101z"/>
<path d="M34 432 c28 -78 84 -172 102 -172 5 0 56 47 114 105 l105 105 -167 0
-167 0 13 -38z"/>
<path d="M955 330 c77 -77 141 -140 142 -140 1 0 9 7 18 17 15 15 8 25 -107
140 -110 111 -126 123 -158 123 l-35 0 140 -140z"/>
<path d="M940 466 c0 -12 204 -206 213 -203 14 4 73 110 91 165 l15 42 -160 0
c-87 0 -159 -2 -159 -4z"/>
<path d="M327 322 c-132 -132 -137 -139 -119 -155 17 -16 24 -10 141 107 111
112 122 126 119 155 -3 31 -4 31 -141 -107z"/>
<path d="M810 188 l0 -167 43 15 c61 21 162 79 165 95 1 8 -45 61 -103 119
l-105 105 0 -167z"/>
<path d="M360 234 c-101 -101 -104 -106 -85 -120 27 -21 111 -63 157 -80 l38
-13 0 159 c0 88 -1 160 -3 160 -1 0 -50 -47 -107 -106z"/>
</g>
</svg>
