<?xml version="1.0" encoding="UTF-8"?>
<svg id="OBJECTS" xmlns="http://www.w3.org/2000/svg" viewBox="0 0 1080 1080">
  <defs>
    <style>
      .cls-1 {
        fill: #9b9b9b;
      }
    </style>
  </defs>
  <path class="cls-1" d="m540.03,280.4c-123.82,0-224.11,100.42-224.22,224.12,1.1,80.77,40.46,156.26,106.06,203.46v161.92c0,1.89.37,3.66,1.1,5.42v1.25c.23.69.55,1.3.95,1.95l55.85,83.22c2.97,4.35,7.93,6.99,13.12,6.99h92.53c5.31,0,10.21-2.64,13.18-6.99l55.94-83.22c.37-.65.66-1.25.98-1.95v-1.25c.63-1.76,1.07-3.53,1.07-5.42v-161.92c65.6-47.2,104.9-122.69,106-203.46-.12-123.21-99.48-223.23-222.55-224.12h0Zm37.77,656.94h-75.64l-34.63-51.38h144.72l-34.46,51.38Zm-124.08-83.19v-42.1h172.55l.12,42.1h-172.67Zm179.87-167.86v.43c-4.5,2.97-7.21,8.03-7.21,13.38v80.67h-172.67v-81.55c0-5.42-2.65-10.44-7.15-13.45-60.78-40.69-97.78-108.59-98.76-181.76,3-106.17,91.61-189.78,197.78-186.77,101.93,2.93,183.88,84.86,186.85,186.77-.92,73.34-37.89,141.55-98.85,182.28h0Zm0,0"/>
  <path class="cls-1" d="m546.37,352.35c-8.77,0-15.89,7.04-15.89,15.83s7.12,15.92,15.89,15.92c65.98.06,119.55,53.56,119.69,119.59,0,8.79,7.01,15.92,15.8,15.92s15.83-7.12,15.83-15.92c0-83.56-67.76-151.34-151.33-151.34h0Zm0,0"/>
  <path class="cls-1" d="m273.1,487.79h-114.36c-8.85,0-15.97,7.14-15.97,15.9s7.12,15.92,15.97,15.92h114.36c8.71,0,15.83-7.12,15.83-15.92s-7.12-15.9-15.83-15.9h0Zm0,0"/>
  <path class="cls-1" d="m921.26,487.79h-114.45c-8.74,0-15.83,7.14-15.83,15.9s7.09,15.92,15.83,15.92h114.45c8.82,0,15.97-7.12,15.97-15.92s-7.15-15.9-15.97-15.9h0Zm0,0"/>
  <path class="cls-1" d="m364.1,681.46c-5.68-6.66-15.68-7.35-22.4-1.7-.61.46-1.18,1.12-1.76,1.7v-.39l-81.14,81.6c-6.72,5.7-7.41,15.76-1.76,22.43,5.8,6.66,15.74,7.43,22.43,1.73.58-.61,1.21-1.12,1.76-1.73l81.2-81.18c6.66-5.78,7.41-15.79,1.67-22.46h0Zm0,0"/>
  <path class="cls-1" d="m819.53,222.45c-6.06-5.02-14.79-5.02-20.76,0l-81.11,81.27c-6.32,6.17-6.32,16.22-.12,22.45,2.97,2.99,7.12,4.73,11.36,4.73l-.14-.16c4.21,0,8.3-1.64,11.27-4.63l81.17-81.2c5.65-6.67,4.9-16.68-1.67-22.46h0Zm0,0"/>
  <path class="cls-1" d="m824.37,765.84c-.95-1.21-1.99-2.19-3.17-3.16l-81.17-81.6c-5.77-6.57-15.71-7.31-22.38-1.62-6.72,5.7-7.53,15.67-1.79,22.43.55.61,1.15,1.18,1.79,1.64l81.11,81.2c5.22,7.03,15.22,8.53,22.23,3.36,7.04-5.23,8.51-15.12,3.37-22.26h0Zm0,0"/>
  <path class="cls-1" d="m362.43,303.72l-81.2-81.27c-6.69-5.7-16.61-4.85-22.43,1.82-5.1,5.94-5.1,14.71,0,20.65l81.14,81.2c6.75,5.67,16.81,4.93,22.49-1.76,5.02-6,5.02-14.71,0-20.63h0Zm0,0"/>
  <path class="cls-1" d="m540.03,111.27c-8.8,0-15.95,7.18-15.95,15.89v114.9c-.2,8.79,6.63,16.05,15.43,16.29.17,0,.32.09.52.09,8.74,0,15.83-7.15,15.83-15.92v-115.36c0-8.71-7.09-15.89-15.83-15.89h0Zm0,0"/>
</svg>