<?xml version="1.0" encoding="UTF-8"?>
<svg id="OBJECTS" xmlns="http://www.w3.org/2000/svg" viewBox="0 0 1080 1080">
  <defs>
    <style>
      .cls-1 {
        fill: #9b9b9b;
      }
    </style>
  </defs>
  <path class="cls-1" d="m809.85,205.11H270.36c-50.58,0-104.76,27.62-104.76,104.67v361.68c0,77.13,54.18,104.67,104.76,104.67h199.68v66.58h-33.33c-8.83,0-16.09,7.24-16.09,16.09s7.27,16.09,16.09,16.09h212.79c8.91,0,16.12-7.21,16.12-16.09s-7.21-16.09-16.12-16.09h-39.42v-66.58h199.77c77.1,0,104.56-54.15,104.56-104.67v-361.68c0-77.05-54.01-104.67-104.56-104.67h0Zm-231.88,637.6h-75.69v-66.58h75.69v66.58Zm304.31-171.25c0,21.77-7.04,72.43-72.43,72.43H270.36c-21.8,0-72.49-7.06-72.49-72.43v-22.87h684.42v22.87Zm0-55.1H197.86v-306.57c0-65.28,50.69-72.38,72.49-72.38h539.49c21.77,0,72.43,7.1,72.43,72.38v306.57Zm0,0"/>
</svg>