<?xml version="1.0" encoding="UTF-8"?>
<svg id="OBJECTS" xmlns="http://www.w3.org/2000/svg" viewBox="0 0 1080 1080">
  <defs>
    <style>
      .cls-1 {
        fill: #9b9b9b;
      }
    </style>
  </defs>
  <path class="cls-1" d="m683.55,486.17v-89.72c0-79.15-64.4-143.55-143.55-143.55s-143.55,64.4-143.55,143.55v89.72c-29.69,0-53.83,24.15-53.83,53.83v233.28c0,29.68,24.15,53.83,53.83,53.83h287.11c29.69,0,53.83-24.15,53.83-53.83v-233.28c0-29.69-24.15-53.83-53.83-53.83Zm-251.22-89.72c0-59.37,48.3-107.67,107.67-107.67s107.67,48.3,107.67,107.67v89.72h-215.33v-89.72Zm269.16,376.83c0,9.89-8.05,17.94-17.94,17.94h-287.11c-9.89,0-17.94-8.05-17.94-17.94v-233.28c0-9.89,8.05-17.94,17.94-17.94h287.11c9.89,0,17.94,8.05,17.94,17.94v233.28Z"/>
  <path class="cls-1" d="m540,593.83c-9.91,0-17.94,8.04-17.94,17.94v89.72c0,9.91,8.03,17.94,17.94,17.94s17.94-8.03,17.94-17.94v-89.72c0-9.91-8.04-17.94-17.94-17.94Z"/>
</svg>