<svg width="38" height="50" viewBox="0 0 38 50" fill="none" xmlns="http://www.w3.org/2000/svg">
<path d="M23.6875 0C24.1019 0 24.4993 0.16462 24.7924 0.457646C25.0854 0.750671 25.25 1.1481 25.25 1.5625C25.25 1.9769 25.4146 2.37433 25.7076 2.66735C26.0007 2.96038 26.3981 3.125 26.8125 3.125C27.2269 3.125 27.6243 3.28962 27.9174 3.58265C28.2104 3.87567 28.375 4.2731 28.375 4.6875V6.25C28.375 6.6644 28.2104 7.06183 27.9174 7.35485C27.6243 7.64788 27.2269 7.8125 26.8125 7.8125H11.1875C10.7731 7.8125 10.3757 7.64788 10.0826 7.35485C9.78962 7.06183 9.625 6.6644 9.625 6.25V4.6875C9.625 4.2731 9.78962 3.87567 10.0826 3.58265C10.3757 3.28962 10.7731 3.125 11.1875 3.125C11.6019 3.125 11.9993 2.96038 12.2924 2.66735C12.5854 2.37433 12.75 1.9769 12.75 1.5625C12.75 1.1481 12.9146 0.750671 13.2076 0.457646C13.5007 0.16462 13.8981 0 14.3125 0L23.6875 0Z" fill="white"/>
<path d="M3.375 7.8125C3.375 7.3981 3.53962 7.00067 3.83265 6.70765C4.12567 6.41462 4.5231 6.25 4.9375 6.25H6.5C6.9144 6.25 7.31183 6.08538 7.60485 5.79235C7.89788 5.49933 8.0625 5.1019 8.0625 4.6875C8.0625 4.2731 7.89788 3.87567 7.60485 3.58265C7.31183 3.28962 6.9144 3.125 6.5 3.125H4.9375C3.6943 3.125 2.50201 3.61886 1.62294 4.49794C0.74386 5.37701 0.25 6.5693 0.25 7.8125V45.3125C0.25 46.5557 0.74386 47.748 1.62294 48.6271C2.50201 49.5061 3.6943 50 4.9375 50H33.0625C34.3057 50 35.498 49.5061 36.3771 48.6271C37.2561 47.748 37.75 46.5557 37.75 45.3125V7.8125C37.75 6.5693 37.2561 5.37701 36.3771 4.49794C35.498 3.61886 34.3057 3.125 33.0625 3.125H31.5C31.0856 3.125 30.6882 3.28962 30.3951 3.58265C30.1021 3.87567 29.9375 4.2731 29.9375 4.6875C29.9375 5.1019 30.1021 5.49933 30.3951 5.79235C30.6882 6.08538 31.0856 6.25 31.5 6.25H33.0625C33.4769 6.25 33.8743 6.41462 34.1674 6.70765C34.4604 7.00067 34.625 7.3981 34.625 7.8125V45.3125C34.625 45.7269 34.4604 46.1243 34.1674 46.4174C33.8743 46.7104 33.4769 46.875 33.0625 46.875H4.9375C4.5231 46.875 4.12567 46.7104 3.83265 46.4174C3.53962 46.1243 3.375 45.7269 3.375 45.3125V7.8125Z" fill="white"/>
<path d="M27.9207 24.5418C28.2141 24.2484 28.3789 23.8505 28.3789 23.4356C28.3789 23.0206 28.2141 22.6227 27.9207 22.3293C27.6273 22.0359 27.2294 21.8711 26.8145 21.8711C26.3995 21.8711 26.0016 22.0359 25.7082 22.3293L17.4395 30.6012L13.8582 27.0168C13.5648 26.7234 13.1669 26.5586 12.752 26.5586C12.3371 26.5586 11.9391 26.7234 11.6457 27.0168C11.3523 27.3102 11.1875 27.7081 11.1875 28.1231C11.1875 28.538 11.3523 28.9359 11.6457 29.2293L16.3332 33.9168C16.4784 34.0623 16.6508 34.1778 16.8406 34.2565C17.0304 34.3353 17.234 34.3759 17.4395 34.3759C17.645 34.3759 17.8485 34.3353 18.0383 34.2565C18.2282 34.1778 18.4006 34.0623 18.5457 33.9168L27.9207 24.5418Z" fill="white"/>
</svg>
