<?xml version="1.0" encoding="UTF-8"?>
<svg id="OBJECTS" xmlns="http://www.w3.org/2000/svg" viewBox="0 0 1080 1080">
  <defs>
    <style>
      .cls-1 {
        fill: #9b9b9b;
      }
    </style>
  </defs>
  <path class="cls-1" d="m961.81,221c-.81,0-1.38.09-2.11.17v-.17l-351.41,42.71-351.47-42.71c-9.11-1.07-17.39,5.39-18.4,14.42-.06.75-.17,1.56-.17,2.11v241.23c-50.6,55.68-52.88,140.14-5.25,198.44l-125.49,125.06c-6.89,6-7.73,16.47-1.85,23.27,6,7.1,16.43,7.79,23.42,1.87.55-.52,1.18-1.15,1.79-1.87l107.21-107.21v81.57c-.06,8.36,6.23,15.42,14.59,16.38l353.98,42.85h3.87l353.17-42.85c8.28-.95,14.56-8.01,14.56-16.38V237.72c0-9.11-7.36-16.55-16.44-16.72ZM265.39,497.81c.32-.35.66-.69.92-1.07,46.51-46.28,121.65-46.28,167.97.06,46.28,46.43,46.22,121.6-.09,167.91-46.4,46.31-121.42,46.31-167.88,0-46.34-45.82-46.8-120.62-.92-166.9Zm326.3,326.27l-320.36-38.84v-75.2c71.57,43.74,164.97,21.25,208.65-50.2,43.8-71.45,21.31-164.94-50.2-208.68-48.65-29.82-109.78-29.82-158.45,0v-195.04l320.36,38.87v529.1Zm353.43-38.84l-320.42,38.84V295.13l320.42-38.9v529.01Z"/>
  <path class="cls-1" d="m307.08,387.63h.49l231.34,28.17h1.53c9.17.55,16.98-6.4,17.53-15.63.55-9.05-6.4-16.87-15.54-17.47l-231.37-28.15c-9.17-1.07-17.47,5.48-18.51,14.56-1.04,9.14,5.34,17.42,14.53,18.51Z"/>
  <path class="cls-1" d="m669.45,415.81h1.87l231.43-28.17c9.2-1.1,15.74-9.37,14.62-18.51-1.12-9.08-9.37-15.63-18.57-14.56l-231.37,28.15c-9.17.61-16.15,8.42-15.54,17.47.49,9.23,8.36,16.18,17.56,15.63Z"/>
  <path class="cls-1" d="m669.45,554.94h1.87l231.43-28.09c9.2-1.04,15.74-9.4,14.62-18.51-1.12-9.08-9.37-15.71-18.57-14.5l-231.37,28.12c-9.17.55-16.15,8.39-15.54,17.44.49,9.17,8.36,16.15,17.56,15.54Z"/>
  <path class="cls-1" d="m669.45,694.12h1.87l231.43-28.11c9.2-1.01,15.74-9.34,14.62-18.45-1.12-9.14-9.37-15.69-18.57-14.5l-231.37,28.06c-9.17.61-16.15,8.42-15.54,17.59.49,9.05,8.36,16,17.56,15.42Z"/>
</svg>